<?xml version="1.0" encoding="UTF-8" standalone="no"?>
<svg
   xmlns:dc="http://purl.org/dc/elements/1.1/"
   xmlns:cc="http://creativecommons.org/ns#"
   xmlns:rdf="http://www.w3.org/1999/02/22-rdf-syntax-ns#"
   xmlns:svg="http://www.w3.org/2000/svg"
   xmlns="http://www.w3.org/2000/svg"
   viewBox="0 0 565.79999 463.79999"
   height="463.79999"
   width="565.79999"
   version="1.1"
   id="svg22600">
  <metadata
     id="metadata22606">
    <rdf:RDF>
      <cc:Work
         rdf:about="">
        <dc:format>image/svg+xml</dc:format>
        <dc:type
           rdf:resource="http://purl.org/dc/dcmitype/StillImage" />
        <dc:title></dc:title>
      </cc:Work>
    </rdf:RDF>
  </metadata>
  <defs
     id="defs22604" />
  <path
     id="path23150"
     d="M 348.31666,460.88392 C 348.96749,460.23536 366.51,443.48466 387.3,423.66015 l 37.8,-36.04458 69.9,0.38441 c 38.445,0.21142 69.9914,0.47103 70.1031,0.57691 0.3338,0.31626 0.073,72.43923 -0.2637,72.98425 -0.1706,0.27609 -49.2243,0.50197 -109.0082,0.50197 -108.06,0 -108.69093,-0.007 -107.51454,-1.17919 z m -53.71667,-41.96832 0,-42.64751 -69.81644,-0.15249 -69.81645,-0.15249 27.04005,-29.85 27.04003,-29.85 28.74639,0 c 27.09625,0 28.72849,-0.0603 28.43468,-1.05 -0.33111,-1.11538 -87.97626,-184.48335 -88.37168,-184.88799 -0.12791,-0.1309 -1.55253,2.5691 -3.1658,6 -1.61327,3.4309 -21.49161,45.118 -44.17409,92.638 -22.68247,47.51999 -41.376808,86.73749 -41.542958,87.14999 -0.23958,0.59476 7.0076,0.75524 35.012078,0.77531 l 35.3142,0.0253 -28.5,28.15151 -28.5,28.1515 -50.954588,0.0232 -50.95459033,0.0232 1.25052003,-1.35 C 2.3291217,371.17061 42.659962,286.93039 91.265422,184.71261 139.87088,82.494835 179.84154,-0.93516262 180.08911,-0.68738362 c 0.78228,0.78295 8.00042,15.77753762 61.7442,128.26427362 l 52.46668,109.81378 0.15251,-69.16378 0.15252,-69.163767 37.79748,0 37.7975,0 0,143.249987 0,143.25 -37.28762,37.8 c -20.50818,20.79 -37.51613,37.89 -37.79543,38 -0.27884,0.11 -0.50736,-18.99138 -0.50736,-42.44751 z"
     style="fill:#000000" />
</svg>
