<?xml version="1.0" encoding="utf-8"?>
<!-- Generator: Adobe Illustrator 24.2.3, SVG Export Plug-In . SVG Version: 6.00 Build 0)  -->
<svg version="1.1" id="Layer_1" xmlns="http://www.w3.org/2000/svg" xmlns:xlink="http://www.w3.org/1999/xlink" x="0px" y="0px"
	 viewBox="0 0 246.15 201.15" style="enable-background:new 0 0 246.15 201.15;" xml:space="preserve">
<style type="text/css">
	.st0{fill:#FFFFFF;stroke:#FFFFFF;stroke-miterlimit:10;}
</style>
<path id="AL_Logo_Path" class="st0" d="M150.08,198.49c0.28-0.28,7.76-7.42,16.62-15.87l16.12-15.37l29.81,0.16
	c16.39,0.09,29.85,0.2,29.89,0.25c0.14,0.13,0.03,30.89-0.11,31.12c-0.07,0.12-20.99,0.21-46.48,0.21
	C149.84,198.99,149.58,198.99,150.08,198.49z M127.17,180.59V162.4l-29.77-0.07l-29.77-0.07l11.53-12.73l11.53-12.73h12.26
	c11.55,0,12.25-0.03,12.13-0.45c-0.14-0.48-37.52-78.67-37.68-78.84c-0.05-0.06-0.66,1.1-1.35,2.56s-9.16,19.24-18.84,39.5
	c-9.67,20.26-17.64,36.99-17.71,37.16c-0.1,0.25,2.99,0.32,14.93,0.33l15.06,0.01l-12.15,12l-12.15,12l-21.73,0.01l-21.73,0.01
	l0.53-0.58c0.29-0.32,17.49-36.24,38.22-79.83S78.25,1.52,78.36,1.62c0.33,0.33,3.41,6.73,26.33,54.69l22.37,46.83l0.07-29.49
	l0.07-29.49h16.12h16.12v61.09v61.09l-15.9,16.12c-8.75,8.87-16,16.16-16.12,16.2C127.27,198.74,127.18,190.6,127.17,180.59
	L127.17,180.59z"/>
</svg>
