<?xml version="1.0" encoding="utf-8"?>
<!-- Generator: Adobe Illustrator 24.2.3, SVG Export Plug-In . SVG Version: 6.00 Build 0)  -->
<svg version="1.1" xmlns="http://www.w3.org/2000/svg" xmlns:xlink="http://www.w3.org/1999/xlink" x="0px" y="0px"
	 viewBox="0 0 560 288" style="enable-background:new 0 0 560 288;" xml:space="preserve">
<style type="text/css">
	.st0{fill:#5F5F5F;}
	.st1{fill:#5F5F5F;stroke:#FFFFFF;stroke-miterlimit:10;}
</style>
<g id="Bottom_Rectangle">
	<polygon id="Bottom_Rectangle_1_" class="bottomrectangle" points="160.4,242.14 485.71,242.14 398.11,144 74.29,143.85 	"/>
</g>
<g id="Top_Rectangle">
	<polygon id="Top_Rectangle_1_" class="toprectangle" points="160.24,143.85 486.14,143.85 398.13,45.34 73.86,45.34 	"/>
</g>
<g id="AL_Logo">
	<path id="AL_Logo_Path" class="allogoanimation" d="M307.93,242.16c0.28-0.28,7.76-7.42,16.62-15.87l16.12-15.37l29.81,0.16
		c16.39,0.09,29.85,0.2,29.89,0.25c0.14,0.13,0.03,30.89-0.11,31.12c-0.07,0.12-20.99,0.21-46.48,0.21
		C307.69,242.66,307.43,242.66,307.93,242.16z M285.02,224.26v-18.19L255.25,206l-29.77-0.07l11.53-12.73l11.53-12.73h12.26
		c11.55,0,12.25-0.03,12.13-0.45c-0.14-0.48-37.52-78.67-37.68-78.84c-0.05-0.06-0.66,1.1-1.35,2.56s-9.16,19.24-18.84,39.5
		c-9.67,20.26-17.64,36.99-17.71,37.16c-0.1,0.25,2.99,0.32,14.93,0.33l15.06,0.01l-12.15,12l-12.15,12l-21.73,0.01l-21.73,0.01
		l0.53-0.58c0.29-0.32,17.49-36.24,38.22-79.83s37.77-79.16,37.88-79.06c0.33,0.33,3.41,6.73,26.33,54.69l22.37,46.83l0.07-29.49
		l0.07-29.49h16.12h16.12v61.09v61.09l-15.9,16.12c-8.75,8.87-16,16.16-16.12,16.2C285.12,242.41,285.03,234.27,285.02,224.26
		L285.02,224.26z"/>
</g>
</svg>
